HIERARCHY
ROOT joint_Root
{
	OFFSET 0.0 0.0 0.0
	CHANNELS 6 Xposition Yposition Zposition Zrotation Xrotation Yrotation 
	JOINT Hips
	{
		OFFSET 4.5925 91.4895 -427.239
		CHANNELS 6 Xposition Yposition Zposition Zrotation Xrotation Yrotation 
		JOINT Spine
		{
			OFFSET 15.7357 0.0 0.0
			CHANNELS 6 Xposition Yposition Zposition Zrotation Xrotation Yrotation 
			JOINT Chest
			{
				OFFSET 8.98455 -0.406207 0.0
				CHANNELS 6 Xposition Yposition Zposition Zrotation Xrotation Yrotation 
				JOINT Neck
				{
					OFFSET 16.3773 0.0 0.0
					CHANNELS 6 Xposition Yposition Zposition Zrotation Xrotation Yrotation 
					JOINT Head
					{
						OFFSET 6.45672 0.0 0.0
						CHANNELS 6 Xposition Yposition Zposition Zrotation Xrotation Yrotation 
						End Site
						{
							OFFSET 0.0 0.0 0.0
						}
					}
				}
				JOINT Shoulder_L
				{
					OFFSET 12.9942 -0.242716 4.98039
					CHANNELS 6 Xposition Yposition Zposition Zrotation Xrotation Yrotation 
					JOINT UpperArm_L
					{
						OFFSET 5.34809 0.0 0.0
						CHANNELS 6 Xposition Yposition Zposition Zrotation Xrotation Yrotation 
						JOINT LowerArm_L
						{
							OFFSET 24.3286 1.87007e-05 0.0
							CHANNELS 6 Xposition Yposition Zposition Zrotation Xrotation Yrotation 
							JOINT Hand_L
							{
								OFFSET 22.2916 0.0 0.0
								CHANNELS 6 Xposition Yposition Zposition Zrotation Xrotation Yrotation 
								End Site
								{
									OFFSET 0.0 0.0 0.0
								}
							}
						}
					}
				}
				JOINT Shoulder_R
				{
					OFFSET 12.9945 -0.242716 -4.98039
					CHANNELS 6 Xposition Yposition Zposition Zrotation Xrotation Yrotation 
					JOINT UpperArm_R
					{
						OFFSET -5.34813 0.0 0.0
						CHANNELS 6 Xposition Yposition Zposition Zrotation Xrotation Yrotation 
						JOINT LowerArm_R
						{
							OFFSET -24.3289 0.000322201 0.0
							CHANNELS 6 Xposition Yposition Zposition Zrotation Xrotation Yrotation 
							JOINT Hand_R
							{
								OFFSET -22.2915 -0.000108084 0.0
								CHANNELS 6 Xposition Yposition Zposition Zrotation Xrotation Yrotation 
								End Site
								{
									OFFSET 0.0 0.0 0.0
								}
							}
						}
					}
				}
			}
		}
		JOINT UpperLeg_L
		{
			OFFSET -2.19248 -6.46944 0.0
			CHANNELS 6 Xposition Yposition Zposition Zrotation Xrotation Yrotation 
			JOINT LowerLeg_L
			{
				OFFSET 39.0811 0.0 -1.23785e-05
				CHANNELS 6 Xposition Yposition Zposition Zrotation Xrotation Yrotation 
				JOINT Foot_L
				{
					OFFSET 40.9854 0.0 -1.26872e-05
					CHANNELS 6 Xposition Yposition Zposition Zrotation Xrotation Yrotation 
					JOINT Toes_L
					{
						OFFSET 11.7543 0.0 0.0
						CHANNELS 6 Xposition Yposition Zposition Zrotation Xrotation Yrotation 
						End Site
						{
							OFFSET 0.0 0.0 0.0
						}
					}
				}
			}
		}
		JOINT UpperLeg_R
		{
			OFFSET -2.19251 6.46944 0.0
			CHANNELS 6 Xposition Yposition Zposition Zrotation Xrotation Yrotation 
			JOINT LowerLeg_R
			{
				OFFSET -39.0811 -0.00228153 -0.0401928
				CHANNELS 6 Xposition Yposition Zposition Zrotation Xrotation Yrotation 
				JOINT Foot_R
				{
					OFFSET -40.9854 0.0 0.0
					CHANNELS 6 Xposition Yposition Zposition Zrotation Xrotation Yrotation 
					JOINT Toes_R
					{
						OFFSET -11.7543 0.0 0.0
						CHANNELS 6 Xposition Yposition Zposition Zrotation Xrotation Yrotation 
						End Site
						{
							OFFSET 0.0 0.0 0.0
						}
					}
				}
			}
		}
	}
}
MOTION
Frames:	9
Frame Time:	0.0333333
0.000000 0.000000 0.000000 0.000000 0.000000 -0.000000 -1.135880 82.307100 -0.554618 87.413800 -8.486340 14.086900 15.735700 0.000005 -0.000001 75.861000 79.370800 -74.676700 8.984550 -0.406207 -0.000000 12.939600 -5.087970 2.947300 16.377300 -0.000001 -0.000001 -2.336580 0.565157 2.387100 6.456720 -0.000001 -0.000000 -6.632920 7.316620 -2.751690 12.994200 -0.242716 4.980390 -91.260300 4.342470 -73.799500 5.348090 -0.000007 -0.000001 -61.830300 32.618600 -13.982700 24.328600 0.000019 0.000005 8.520880 13.598500 -32.504900 22.291600 -0.000001 0.000005 13.887600 5.255380 1.283680 12.994500 -0.242716 -4.980390 87.068800 12.033600 -76.201200 -5.348130 -0.000001 -0.000004 -62.733700 8.620880 -5.422340 -24.328900 0.000322 -0.000009 -2.126400 -10.384300 -11.619500 -22.291500 -0.000108 -0.000004 10.248200 5.296960 0.177789 -2.192480 -6.469440 -0.000000 -170.344000 -12.560500 -10.690200 39.081100 -0.000007 -0.000012 -0.496837 0.263147 62.093400 40.985400 -0.000006 -0.000013 -0.648852 3.103720 -86.235800 11.754300 -0.000000 0.000003 -0.000256 -0.002276 -16.662800 -2.192510 6.469440 -0.000001 179.363000 7.916900 168.444000 -39.081100 -0.002282 -0.040193 0.062113 -0.032012 61.484500 -40.985400 0.000008 0.000006 7.789470 5.193990 -85.665700 -11.754300 -0.000006 -0.000006 -0.046252 -0.071263 -17.310000
0.000000 0.000000 0.000000 0.000000 0.000000 -0.000000 -1.866620 83.722000 -0.033911 86.733700 -4.464620 13.526700 15.735700 0.000005 -0.000001 75.716500 80.351900 -75.174800 8.984550 -0.406207 -0.000000 10.983400 -4.710280 1.536390 16.377300 -0.000001 -0.000001 -1.490540 -0.546312 2.178560 6.456720 -0.000001 -0.000000 -5.360730 4.833650 -1.428390 12.994200 -0.242716 4.980390 -91.363000 4.559760 -73.338300 5.348090 -0.000007 -0.000001 -62.692800 31.637100 -14.037400 24.328600 0.000019 0.000005 6.949550 12.318000 -29.738900 22.291600 -0.000001 0.000005 14.282800 5.206530 2.556490 12.994500 -0.242716 -4.980390 87.235300 11.135200 -75.961000 -5.348130 -0.000001 -0.000004 -60.829000 3.932410 -5.073330 -24.328900 0.000322 -0.000009 -0.618406 -5.165400 -6.803100 -22.291500 -0.000108 -0.000004 5.779290 5.231140 1.944560 -2.192480 -6.469440 -0.000000 -170.048000 -9.462690 -9.838900 39.081100 -0.000007 -0.000012 -0.466109 0.289046 58.197000 40.985400 -0.000006 -0.000013 -0.717911 4.205260 -84.201600 11.754300 -0.000000 0.000003 -0.000245 -0.002194 -16.659800 -2.192510 6.469440 -0.000001 179.976000 10.864700 170.958000 -39.081100 -0.002282 -0.040193 0.071615 -0.044469 56.969900 -40.985400 0.000008 0.000006 7.519200 4.158180 -83.983200 -11.754300 -0.000006 -0.000006 -0.070185 -0.101998 -17.435100
0.000000 0.000000 0.000000 0.000000 0.000000 -0.000000 -2.334980 85.905600 0.379046 87.027800 -0.829440 11.761300 15.735700 0.000005 -0.000001 74.997000 81.936600 -75.646200 8.984550 -0.406207 -0.000000 7.803130 -4.157750 -1.013790 16.377300 -0.000001 -0.000001 0.441727 -1.808230 2.359430 6.456720 -0.000001 -0.000000 -3.943190 2.182220 0.803492 12.994200 -0.242716 4.980390 -91.324600 4.246430 -72.657300 5.348090 -0.000007 -0.000001 -64.005000 30.665400 -12.508200 24.328600 0.000019 0.000005 5.930870 11.406600 -27.712500 22.291600 -0.000001 0.000005 12.931400 5.212980 2.387230 12.994500 -0.242716 -4.980390 87.597900 9.168260 -75.248400 -5.348130 -0.000001 -0.000004 -56.547000 -3.042340 -7.564550 -24.328900 0.000322 -0.000009 -0.111702 -1.785450 -3.541170 -22.291500 -0.000108 -0.000004 2.553230 5.163030 3.633350 -2.192480 -6.469440 -0.000000 -170.782000 -7.839110 -8.798610 39.081100 -0.000007 -0.000012 -0.364389 0.291542 51.338000 40.985400 -0.000006 -0.000013 -0.526121 5.715490 -80.595400 11.754300 -0.000000 0.000003 -0.000172 -0.001632 -16.639400 -2.192510 6.469440 -0.000001 179.755000 13.515900 173.014000 -39.081100 -0.002282 -0.040193 0.066876 -0.053119 50.144400 -40.985400 0.000008 0.000006 7.124340 3.885370 -80.661700 -11.754300 -0.000006 -0.000006 -0.083019 -0.124441 -17.820800
0.000000 0.000000 0.000000 0.000000 0.000000 -0.000000 -2.506700 88.062600 0.555957 87.667000 1.989330 9.025890 15.735700 0.000005 -0.000001 72.471900 83.822200 -74.412100 8.984550 -0.406207 -0.000000 3.963640 -3.651420 -3.750600 16.377300 -0.000001 -0.000001 3.130520 -2.835170 2.580430 6.456720 -0.000001 -0.000000 -2.655540 -0.168742 3.055050 12.994200 -0.242716 4.980390 -91.142000 3.451920 -71.680900 5.348090 -0.000007 -0.000001 -65.797200 28.739400 -9.630240 24.328600 0.000019 0.000005 6.113100 12.394100 -26.519000 22.291600 -0.000001 0.000005 10.987100 5.232890 1.884150 12.994500 -0.242716 -4.980390 88.074500 6.995070 -74.567500 -5.348130 -0.000001 -0.000004 -49.758700 -12.859600 -13.416500 -24.328900 0.000322 -0.000009 -0.101145 -2.703870 -2.119230 -22.291500 -0.000108 -0.000004 3.363830 5.101390 5.078670 -2.192480 -6.469440 -0.000000 -171.768000 -8.062330 -8.215040 39.081100 -0.000007 -0.000012 -0.245550 0.257897 43.595700 40.985400 -0.000006 -0.000013 -0.103818 7.800990 -76.417100 11.754300 -0.000000 0.000003 -0.000082 -0.000866 -16.610900 -2.192510 6.469440 -0.000001 179.459000 15.657900 174.055000 -39.081100 -0.002282 -0.040193 0.053938 -0.054737 42.789000 -40.985400 0.000008 0.000006 6.716660 4.169930 -76.734900 -11.754300 -0.000006 -0.000006 -0.081110 -0.130671 -18.266100
0.000000 0.000000 0.000000 0.000000 0.000000 -0.000000 -2.364490 89.596500 0.639139 88.060900 3.542620 7.077960 15.735700 0.000005 -0.000001 70.573900 85.140000 -73.333000 8.984550 -0.406207 -0.000000 1.334880 -3.076530 -5.478570 16.377300 -0.000001 -0.000001 5.131160 -3.327630 2.024330 6.456720 -0.000001 -0.000000 -1.963310 -1.815860 4.167500 12.994200 -0.242716 4.980390 -91.044200 2.964430 -70.586700 5.348090 -0.000007 -0.000001 -67.053300 26.176500 -7.103020 24.328600 0.000019 0.000005 6.022430 12.964300 -25.185500 22.291600 -0.000001 0.000005 9.619790 5.231780 1.909370 12.994500 -0.242716 -4.980390 88.651700 5.003350 -74.901300 -5.348130 -0.000001 -0.000004 -42.074300 -25.174200 -22.402300 -24.328900 0.000322 -0.000009 -0.552939 -8.492130 -3.704170 -22.291500 -0.000108 -0.000004 6.350220 5.144010 4.103990 -2.192480 -6.469440 -0.000000 -172.209000 -10.329200 -7.182840 39.081100 -0.000007 -0.000012 -0.156412 0.205704 37.248800 40.985400 -0.000006 -0.000013 0.634803 10.740000 -73.100000 11.754300 -0.000000 0.000003 -0.000042 -0.000485 -16.596400 -2.192510 6.469440 -0.000001 179.146000 17.283700 175.228000 -39.081100 -0.002282 -0.040193 0.040565 -0.050006 36.703400 -40.985400 0.000008 0.000006 6.319700 5.096650 -73.511500 -11.754300 -0.000006 -0.000006 -0.003940 -0.050814 -18.640100
0.000000 0.000000 0.000000 0.000000 0.000000 -0.000000 -2.019200 90.395100 0.595958 88.416200 3.787440 6.298720 15.735700 0.000005 -0.000001 73.914800 85.679800 -76.923600 8.984550 -0.406207 -0.000000 0.486186 -2.202250 -6.004220 16.377300 -0.000001 -0.000001 5.467330 -3.341200 0.868149 6.456720 -0.000001 -0.000000 -2.227790 -2.753860 3.492300 12.994200 -0.242716 4.980390 -91.307900 3.543250 -69.726300 5.348090 -0.000007 -0.000001 -67.097900 23.550400 -5.825950 24.328600 0.000019 0.000005 5.288090 12.593900 -23.000000 22.291600 -0.000001 0.000005 9.713760 5.217570 2.272720 12.994500 -0.242716 -4.980390 89.603200 1.724450 -77.069100 -5.348130 -0.000001 -0.000004 -36.272400 -39.264600 -31.141800 -24.328900 0.000322 -0.000009 -4.209720 -19.397600 -12.449700 -22.291500 -0.000108 -0.000004 8.346540 5.305910 -0.079442 -2.192480 -6.469440 -0.000000 -172.577000 -12.888100 -6.028960 39.081100 -0.000007 -0.000012 -0.104866 0.158577 33.476600 40.985400 -0.000006 -0.000013 1.254890 12.951900 -71.208100 11.754300 -0.000000 0.000003 -0.000020 -0.000254 -16.587500 -2.192510 6.469440 -0.000001 178.568000 17.988300 176.379000 -39.081100 -0.002282 -0.040193 0.032454 -0.044955 32.968400 -40.985400 0.000008 0.000006 6.093750 6.121620 -71.892200 -11.754300 -0.000006 -0.000006 -0.004598 -0.057520 -18.913200
0.000000 0.000000 0.000000 0.000000 0.000000 -0.000000 -1.828010 90.751500 0.283506 88.668100 3.556310 5.680800 15.735700 0.000005 -0.000001 82.042000 85.863500 -85.138900 8.984550 -0.406207 -0.000000 0.409498 -0.946418 -6.186080 16.377300 -0.000001 -0.000001 4.800040 -3.646220 0.607421 6.456720 -0.000001 -0.000000 -3.297210 -3.002020 1.614210 12.994200 -0.242716 4.980390 -91.642800 4.378160 -69.409600 5.348090 -0.000007 -0.000001 -65.634600 21.788600 -5.855940 24.328600 0.000019 0.000005 4.793330 13.060500 -20.359800 22.291600 -0.000001 0.000005 11.109200 5.202240 2.660690 12.994500 -0.242716 -4.980390 90.478000 -2.210180 -77.797600 -5.348130 -0.000001 -0.000004 -29.734300 -48.767600 -37.042400 -24.328900 0.000322 -0.000009 -11.527500 -20.418300 -30.361100 -22.291500 -0.000108 -0.000004 12.110800 5.467810 -5.185980 -2.192480 -6.469440 -0.000000 -173.000000 -14.168300 -5.908640 39.081100 -0.000007 -0.000012 -0.084831 0.137266 31.716500 40.985400 -0.000006 -0.000013 1.448840 13.726500 -70.143600 11.754300 -0.000000 0.000003 -0.000022 -0.000278 -16.588400 -2.192510 6.469440 -0.000001 178.519000 17.578500 176.485000 -39.081100 -0.002282 -0.040193 0.031585 -0.046949 31.067400 -40.985400 0.000008 0.000006 6.086120 6.095500 -71.257800 -11.754300 -0.000006 -0.000006 -0.004486 -0.056402 -18.867600
0.000000 0.000000 0.000000 0.000000 0.000000 -0.000000 -1.832780 90.943200 -0.093488 89.128400 3.891480 5.013870 15.735700 0.000005 -0.000001 87.874600 85.854000 -91.084200 8.984550 -0.406207 -0.000000 0.525384 -0.104855 -6.413950 16.377300 -0.000001 -0.000001 3.992740 -4.215050 1.502550 6.456720 -0.000001 -0.000000 -4.606960 -2.892390 -0.951396 12.994200 -0.242716 4.980390 -91.915400 5.022920 -69.095000 5.348090 -0.000007 -0.000001 -64.038100 20.112000 -6.496610 24.328600 0.000019 0.000005 5.106050 16.134700 -17.827900 22.291600 -0.000001 0.000005 12.744400 5.155920 3.794320 12.994500 -0.242716 -4.980390 91.402100 -5.593450 -75.914500 -5.348130 -0.000001 -0.000004 -16.284900 -52.654100 -37.890200 -24.328900 0.000322 -0.000009 -9.560150 -9.807620 -44.677500 -22.291500 -0.000108 -0.000004 20.448000 5.553830 -8.902240 -2.192480 -6.469440 -0.000000 -173.594000 -15.121900 -6.330020 39.081100 -0.000007 -0.000012 -0.075750 0.127967 30.623500 40.985400 -0.000006 -0.000013 1.655870 14.799900 -69.298800 11.754300 -0.000000 0.000003 -0.000019 -0.000238 -16.586900 -2.192510 6.469440 -0.000001 178.349000 17.712000 175.983000 -39.081100 -0.002282 -0.040193 0.032871 -0.050698 30.253000 -40.985400 0.000008 0.000006 6.231310 5.921520 -70.972800 -11.754300 -0.000006 -0.000006 -0.004479 -0.056334 -18.864900
0.000000 0.000000 0.000000 0.000000 0.000000 -0.000000 -2.190230 91.057300 -0.287567 89.400500 5.363520 4.414370 15.735700 0.000005 -0.000001 88.681000 85.906000 -92.164600 8.984550 -0.406207 -0.000000 0.430297 0.034307 -6.962220 16.377300 -0.000001 -0.000001 4.004700 -5.288610 3.173690 6.456720 -0.000001 -0.000000 -5.330670 -2.819730 -1.541110 12.994200 -0.242716 4.980390 -91.700500 4.475790 -69.172300 5.348090 -0.000007 -0.000001 -64.049100 16.759000 -6.460680 24.328600 0.000019 0.000005 5.837150 20.604300 -16.199600 22.291600 -0.000001 0.000005 14.626700 5.076020 5.651240 12.994500 -0.242716 -4.980390 92.788300 -8.979500 -72.675700 -5.348130 -0.000001 -0.000004 -13.328600 -57.764900 -46.444800 -24.328900 0.000322 -0.000009 -8.277200 -8.622240 -44.117900 -22.291500 -0.000108 -0.000004 15.970300 5.542180 -8.305490 -2.192480 -6.469440 -0.000000 -173.733000 -15.703500 -6.971390 39.081100 -0.000007 -0.000012 -0.072218 0.125580 29.902600 40.985400 -0.000006 -0.000013 1.834460 16.751700 -68.605800 11.754300 -0.000000 0.000003 -0.000020 -0.000256 -16.587600 -2.192510 6.469440 -0.000001 178.397000 19.206300 175.665000 -39.081100 -0.002282 -0.040193 0.032321 -0.050922 29.676900 -40.985400 0.000008 0.000006 6.450480 5.893170 -70.863800 -11.754300 -0.000006 -0.000006 -0.004334 -0.054870 -18.805200
